<?xml version="1.0" encoding="UTF-8"?><svg id="Layer_1" xmlns="http://www.w3.org/2000/svg" viewBox="0 0 250 150"><defs><style>.cls-1{fill:none;}.cls-2{fill:#079247;}</style></defs><polygon class="cls-1" points="68.94 72.81 68.84 72.81 68.7 74.41 67.05 84.08 71.04 84.08 69.14 74.41 68.94 72.81"/><polygon class="cls-2" points="35.32 63.97 34.01 69.92 30.94 83.47 30.84 83.47 27.76 69.92 26.45 63.97 12.65 63.97 11.39 98.39 21.67 98.39 21.87 87.75 22.17 79.34 22.32 79.34 26.35 98.39 35.42 98.39 39.45 79.34 39.6 79.34 39.91 87.75 40.11 98.39 50.39 98.39 49.13 63.97 35.32 63.97"/><path class="cls-2" d="m197.21,84.84c0,3.3-1.05,5.9-4.15,5.9s-4.15-2.6-4.15-5.9v-20.09h-10.94v19.39c0,9.84,4.9,15.24,15.09,15.24s15.09-5.4,15.09-15.24v-19.39h-10.94v20.09Z"/><circle class="cls-2" cx="144.94" cy="55.4" r="4.77"/><circle class="cls-2" cx="166.71" cy="55.4" r="4.77"/><path class="cls-2" d="m61.97,64.34l-9.07,34.04h11.36l1.15-6.03h7.18l1.25,6.03h11.76l-9.17-34.04h-14.45Zm5.08,19.74l1.64-9.67.15-1.6h.1l.2,1.6,1.89,9.67h-3.99Z"/><polygon class="cls-2" points="82.6 73.41 90.18 73.41 90.18 98.38 100.99 98.38 100.99 73.41 108.27 73.41 108.72 64.34 83.05 64.34 82.6 73.41"/><path class="cls-2" d="m128.31,72.71c2.74,0,4.98.55,6.88,1.25l1.3-8.62c-1.94-.9-5.48-1.5-8.92-1.5-10.62,0-18.19,6.53-18.19,17.94,0,8.47,4.49,17.1,17.89,17.1,3.69,0,7.13-.65,8.72-1.35l-.9-8.62c-1.79.6-4.34,1-6.53,1-4.88,0-7.88-2.54-7.88-8.62,0-6.58,3.69-8.57,7.63-8.57Z"/><polygon class="cls-2" points="161.25 76.4 157.04 76.4 157.04 85.72 161.25 85.72 161.25 98.38 172.07 98.38 172.07 64.34 161.25 64.34 161.25 76.4"/><polygon class="cls-2" points="150.34 64.34 139.47 64.34 139.47 98.38 150.34 98.38 150.34 85.72 154.5 85.72 154.5 76.4 150.34 76.4 150.34 64.34"/><path class="cls-2" d="m222.29,64.31c-4.94,0-8.57.2-11.29.45v8.06h15.86c1.79,0,3.24,1.45,3.24,3.24s-1.45,3.24-3.24,3.24h-3.06c-.25.02-.5.03-.76.02h-1.21v-.02h-10.83v19.57h10.83v-10.98h2.72c8.46.1,14.06-4.18,14.06-12.09,0-10.18-8.72-11.49-16.32-11.49Z"/></svg>